<svg width="30" height="30" viewBox="0 0 30 30" fill="none" xmlns="http://www.w3.org/2000/svg">
<circle cx="15" cy="15" r="14.5" fill="#308C78" stroke="black"/>
<path d="M16.9883 20C16.8283 20 16.6896 19.9413 16.5723 19.824C16.455 19.7067 16.3963 19.5573 16.3963 19.376V17.008H10.6683C10.4976 17.008 10.3536 16.9547 10.2363 16.848C10.1296 16.7307 10.0656 16.5973 10.0443 16.448C10.0336 16.2987 10.0763 16.16 10.1723 16.032L16.5083 7.744C16.5616 7.66933 16.6256 7.61067 16.7003 7.568C16.7856 7.51467 16.8923 7.488 17.0203 7.488C17.191 7.488 17.3296 7.552 17.4363 7.68C17.5536 7.79733 17.6123 7.94667 17.6123 8.128V15.888H18.8763C19.047 15.888 19.191 15.9307 19.3083 16.016C19.4256 16.1013 19.4843 16.2507 19.4843 16.464C19.4843 16.6027 19.4256 16.7307 19.3083 16.848C19.191 16.9547 19.047 17.008 18.8763 17.008H17.6123V19.376C17.6123 19.5573 17.5536 19.7067 17.4363 19.824C17.319 19.9413 17.1696 20 16.9883 20ZM11.3403 16.368L11.1163 15.888H16.3963V9.024L16.7163 9.36L11.3403 16.368Z" fill="white"/>
</svg>
