<svg width="30" height="30" viewBox="0 0 30 30" fill="none" xmlns="http://www.w3.org/2000/svg">
<circle cx="15" cy="15" r="14.5" fill="#308C78" stroke="black"/>
<path d="M15.1203 20.08C14.3736 20.08 13.7016 19.92 13.1043 19.6C12.5176 19.2693 12.0536 18.8213 11.7123 18.256C11.371 17.6907 11.2003 17.0507 11.2003 16.336C11.2003 16.1547 11.2536 16 11.3603 15.872C11.467 15.744 11.611 15.68 11.7923 15.68C11.9736 15.68 12.1176 15.744 12.2243 15.872C12.331 16 12.3843 16.1547 12.3843 16.336C12.3843 16.8267 12.5016 17.2693 12.7363 17.664C12.971 18.048 13.291 18.3573 13.6963 18.592C14.1123 18.816 14.571 18.928 15.0723 18.928C15.9043 18.928 16.555 18.6987 17.0243 18.24C17.4936 17.7707 17.7283 17.168 17.7283 16.432C17.7283 15.9093 17.6163 15.456 17.3923 15.072C17.1683 14.6773 16.8643 14.3733 16.4803 14.16C16.0963 13.936 15.6643 13.824 15.1843 13.824C15.0136 13.824 14.8696 13.7653 14.7523 13.648C14.635 13.5307 14.5763 13.3813 14.5763 13.2C14.5763 13.0293 14.635 12.8853 14.7523 12.768C14.8696 12.6507 15.0136 12.592 15.1843 12.592C15.5576 12.592 15.899 12.5013 16.2083 12.32C16.5283 12.128 16.7843 11.8773 16.9763 11.568C17.1683 11.2587 17.2643 10.9173 17.2643 10.544C17.2643 9.97867 17.0723 9.50933 16.6883 9.136C16.3043 8.752 15.7923 8.56 15.1523 8.56C14.7043 8.56 14.3043 8.65067 13.9523 8.832C13.6003 9.00267 13.323 9.23733 13.1203 9.536C12.9283 9.824 12.8323 10.1547 12.8323 10.528C12.8323 10.7093 12.7736 10.864 12.6563 10.992C12.5496 11.1093 12.411 11.168 12.2403 11.168C12.059 11.168 11.915 11.1093 11.8083 10.992C11.7016 10.864 11.6483 10.7147 11.6483 10.544C11.6483 9.95733 11.7976 9.42933 12.0963 8.96C12.4056 8.48 12.8216 8.10667 13.3443 7.84C13.867 7.56267 14.4696 7.424 15.1523 7.424C15.771 7.424 16.3256 7.56267 16.8163 7.84C17.3176 8.10667 17.7123 8.48 18.0003 8.96C18.299 9.42933 18.4483 9.95733 18.4483 10.544C18.4483 10.9067 18.3576 11.2587 18.1763 11.6C18.0056 11.9413 17.7763 12.2507 17.4883 12.528C17.2003 12.7947 16.8856 13.0027 16.5443 13.152C17.0883 13.312 17.5416 13.5573 17.9043 13.888C18.267 14.2187 18.5336 14.608 18.7043 15.056C18.875 15.4933 18.9603 15.952 18.9603 16.432C18.9603 17.136 18.7896 17.7653 18.4483 18.32C18.1176 18.864 17.659 19.296 17.0723 19.616C16.4856 19.9253 15.835 20.08 15.1203 20.08Z" fill="white"/>
</svg>
