<svg width="30" height="30" viewBox="0 0 30 30" fill="none" xmlns="http://www.w3.org/2000/svg">
<circle cx="15" cy="15" r="14.5" fill="#308C78" stroke="black"/>
<path d="M12.1116 20C11.9409 20 11.7916 19.9413 11.6636 19.824C11.5462 19.7067 11.4876 19.5573 11.4876 19.376C11.4876 19.216 11.5462 19.072 11.6636 18.944L16.5116 13.216C16.7782 12.928 16.9916 12.608 17.1516 12.256C17.3116 11.8933 17.3916 11.5573 17.3916 11.248C17.3916 10.7467 17.2902 10.304 17.0876 9.92C16.8956 9.536 16.6182 9.23733 16.2556 9.024C15.9036 8.8 15.4982 8.688 15.0396 8.688C14.5916 8.688 14.1809 8.80533 13.8076 9.04C13.4449 9.264 13.1569 9.568 12.9436 9.952C12.7409 10.336 12.6396 10.768 12.6396 11.248C12.6396 11.4187 12.5809 11.5627 12.4636 11.68C12.3462 11.7973 12.1969 11.856 12.0156 11.856C11.8449 11.856 11.6956 11.7973 11.5676 11.68C11.4502 11.5627 11.3916 11.4187 11.3916 11.248C11.3916 10.5333 11.5516 9.89333 11.8716 9.328C12.1916 8.76267 12.6236 8.31467 13.1676 7.984C13.7222 7.65333 14.3462 7.488 15.0396 7.488C15.7329 7.488 16.3462 7.648 16.8796 7.968C17.4236 8.288 17.8449 8.73067 18.1436 9.296C18.4529 9.86133 18.6076 10.512 18.6076 11.248C18.6076 11.6 18.5489 11.936 18.4316 12.256C18.3249 12.576 18.1756 12.8853 17.9836 13.184C17.7916 13.472 17.5836 13.744 17.3596 14L13.2636 18.752H18.2716C18.4422 18.752 18.5862 18.816 18.7036 18.944C18.8316 19.072 18.8956 19.216 18.8956 19.376C18.8956 19.5573 18.8316 19.7067 18.7036 19.824C18.5862 19.9413 18.4422 20 18.2716 20H12.1116Z" fill="white"/>
</svg>
