<svg width="30" height="30" viewBox="0 0 30 30" fill="none" xmlns="http://www.w3.org/2000/svg">
<circle cx="15" cy="15" r="14.5" fill="#308C78" stroke="black"/>
<path d="M15.8006 20C15.6299 20 15.4806 19.9413 15.3526 19.824C15.2352 19.7067 15.1766 19.5573 15.1766 19.376V8.976L13.5766 9.536C13.4592 9.58933 13.3526 9.616 13.2566 9.616C13.0752 9.616 12.9259 9.55733 12.8086 9.44C12.6912 9.32267 12.6326 9.17867 12.6326 9.008C12.6326 8.88 12.6592 8.76267 12.7126 8.656C12.7766 8.54933 12.8832 8.46933 13.0326 8.416L15.4966 7.568C15.5499 7.54667 15.6032 7.53067 15.6566 7.52C15.7206 7.49867 15.7739 7.488 15.8166 7.488C15.9979 7.488 16.1419 7.552 16.2486 7.68C16.3659 7.79733 16.4246 7.94133 16.4246 8.112V19.376C16.4246 19.5573 16.3659 19.7067 16.2486 19.824C16.1312 19.9413 15.9819 20 15.8006 20Z" fill="white"/>
</svg>
